<?xml version="1.0" encoding="utf-8"?>
<!-- Generator: Adobe Illustrator 28.2.0, SVG Export Plug-In . SVG Version: 6.00 Build 0)  -->
<svg version="1.1" id="Layer_1" xmlns="http://www.w3.org/2000/svg" xmlns:xlink="http://www.w3.org/1999/xlink" x="0px" y="0px"
	 viewBox="0 0 256 256" style="enable-background:new 0 0 256 256;" xml:space="preserve">
<style type="text/css">
	.st0{fill:#E58924;}
	.st1{fill:#FFFFFF;}
	.st2{fill:#231F20;}
</style>
<circle class="st0" cx="128" cy="128" r="120"/>
<path d="M105.6,80.6l9.9-10V128c0,6.9,5.6,12.5,12.5,12.5c6.9,0,12.5-5.6,12.5-12.5V70.6l9.9,10c4.9,4.9,12.8,4.9,17.7,0.1
	c0,0,0,0,0.1-0.1c4.9-4.9,4.9-12.8,0.1-17.7c0,0,0,0-0.1-0.1l-31.3-31.3c-1.2-1.1-2.6-2-4.1-2.6c-3-1.3-6.5-1.3-9.5,0
	c-1.5,0.6-2.9,1.5-4.1,2.6L87.9,62.8c-4.9,4.9-4.9,12.9,0,17.8C92.8,85.5,100.7,85.5,105.6,80.6z M150.4,175.4l-9.9,10V128
	c0-6.9-5.6-12.5-12.5-12.5c-6.9,0-12.5,5.6-12.5,12.5v57.4l-9.9-10c-4.9-4.9-12.9-4.9-17.8,0c-4.9,4.9-4.9,12.9,0,17.8l31.3,31.3
	c1.2,1.1,2.6,2,4.1,2.6c3,1.3,6.5,1.3,9.5,0c1.5-0.6,2.9-1.5,4.1-2.6l31.3-31.3c4.9-4.9,4.9-12.9,0-17.8
	C163.2,170.5,155.3,170.5,150.4,175.4z"/>
<circle class="st1" cx="128" cy="128" r="12.5"/>
<circle class="st2" cx="128" cy="15.5" r="12.5"/>
<circle class="st2" cx="128" cy="240.5" r="12.5"/>
</svg>
